<?xml version="1.0"?>
<svg version="1.1" xmlns="http://www.w3.org/2000/svg" xmlns:xlink="http://www.w3.org/1999/xlink" width="105" height="39">
    <desc iVinci="yes" version="4.6" gridStep="20" showGrid="no" snapToGrid="no" codePlatform="0"/>
    <g id="Layer1" name="Layer 1" opacity="1">
        <g id="Shape1">
            <desc shapeID="1" type="0" basicInfo-basicType="0" basicInfo-roundedRectRadius="12" basicInfo-polygonSides="6" basicInfo-starPoints="5" bounding="rect(-27.0836,-17.8558,54.1672,35.7117)" text="" font-familyName="" font-pixelSize="20" font-bold="0" font-underline="0" font-alignment="1" strokeStyle="0" markerStart="0" markerEnd="0" shadowEnabled="0" shadowOffsetX="0" shadowOffsetY="2" shadowBlur="4" shadowOpacity="160" blurEnabled="0" blurRadius="4" transform="matrix(1,0,0,1,76.6284,19.6192)" pers-center="0,0" pers-size="0,0" pers-start="0,0" pers-end="0,0" locked="0" mesh="" flag=""/>
            <path id="shapePath1" d="M72.645,1.76332 L89.3297,1.76332 C99.7512,1.76332 103.712,9.75766 103.712,19.6192 C103.712,29.4807 101.357,37.475 87.9769,37.475 L49.5448,37.475 C49.5448,37.475 61.1771,28.4536 61.1771,18.592 C61.1771,18.592 62.2235,1.76332 72.645,1.76332 Z" style="stroke:none;fill-rule:evenodd;fill:#ffffff;fill-opacity:1;"/>
        </g>
        <g id="Shape2">
            <desc shapeID="2" type="0" basicInfo-basicType="0" basicInfo-roundedRectRadius="12" basicInfo-polygonSides="6" basicInfo-starPoints="5" bounding="rect(-52.4871,-19.575,104.974,39.15)" text="" font-familyName="" font-pixelSize="20" font-bold="0" font-underline="0" font-alignment="1" strokeStyle="0" markerStart="0" markerEnd="0" shadowEnabled="0" shadowOffsetX="0" shadowOffsetY="2" shadowBlur="4" shadowOpacity="160" blurEnabled="0" blurRadius="4" transform="matrix(1,0,0,1,52.4869,19.6497)" pers-center="0,0" pers-size="0,0" pers-start="0,0" pers-end="0,0" locked="0" mesh="" flag=""/>
            <path id="shapePath2" d="M89.9106,36.0184 C96.9672,35.9968 101.798,31.1662 101.773,24.1805 C101.765,21.9602 101.799,17.7729 101.756,15.4127 C101.634,8.67632 97.0492,3.5995 89.9232,3.5458 C87.247,3.52539 81.6719,3.40828 76.5481,3.52417 C69.5721,3.68161 64.6586,8.95985 64.6857,15.3622 C64.7045,19.7462 64.712,20.7637 64.6083,24.4234 C64.4661,29.4362 60.899,36.0206 52.7459,36.0184 C65.1276,36.0184 77.6645,36.0565 89.9106,36.0184 M89.9232,0.10043 C97.8674,0.100185 104.974,6.79534 104.961,15.1697 C104.957,18.0026 104.974,21.3898 104.974,24.1805 C104.974,32.0663 98.502,39.2073 89.9106,39.2246 C89.1082,39.2264 17.212,39.1991 15.0522,39.1991 C7.09303,39.1991 0.0141525,32.4375 0.0141525,24.1291 C0.0141525,19.5338 -0.00568008,19.714 0.00143814,15.1189 C0.0141525,6.92096 7.01112,0.0749187 15.0648,0.0746765 C15.8028,0.0746765 87.5449,0.10043 89.9232,0.10043 Z" style="stroke:none;fill-rule:evenodd;fill:#000000;fill-opacity:1;"/>
        </g>
        <g id="Shape3">
            <desc shapeID="3" type="0" basicInfo-basicType="0" basicInfo-roundedRectRadius="12" basicInfo-polygonSides="6" basicInfo-starPoints="5" bounding="rect(-7.4785,-9.19935,14.957,18.3987)" text="" font-familyName="" font-pixelSize="20" font-bold="0" font-underline="0" font-alignment="1" strokeStyle="0" markerStart="0" markerEnd="0" shadowEnabled="0" shadowOffsetX="0" shadowOffsetY="2" shadowBlur="4" shadowOpacity="160" blurEnabled="0" blurRadius="4" transform="matrix(1,0,0,1,20.6709,21.5579)" pers-center="0,0" pers-size="0,0" pers-start="0,0" pers-end="0,0" locked="0" mesh="" flag=""/>
            <path id="shapePath3" d="M20.671,14.6101 C19.2476,14.6101 18.0658,15.0367 17.1258,15.8907 C16.1855,16.7448 15.7155,17.8315 15.7155,19.1513 C15.7155,20.4625 16.1831,21.5405 17.1193,22.386 C18.0551,23.2313 19.239,23.6539 20.671,23.6539 C21.5765,23.6539 22.3917,23.4793 23.1164,23.13 C23.8407,22.7805 24.4143,22.2825 24.8371,21.6355 L24.8371,24.7408 C23.5605,25.5171 22.172,25.9054 20.671,25.9054 C18.5056,25.9054 16.7181,25.2734 15.3078,24.0098 C13.8975,22.7463 13.1924,21.1265 13.1924,19.1513 C13.1924,17.1674 13.8975,15.5395 15.3078,14.267 C16.7181,12.9946 18.5056,12.3586 20.671,12.3586 C22.836,12.3586 24.6239,12.9946 26.0339,14.267 C27.4443,15.5395 28.1494,17.1674 28.1494,19.1513 L28.1494,25.1677 C28.1494,25.858 27.9812,26.5346 27.6447,27.1991 C27.3083,27.8631 26.8382,28.4497 26.2343,28.9588 C24.8112,30.1578 22.9564,30.7573 20.671,30.7573 C19.7306,30.7573 18.7042,30.6603 17.5915,30.4661 C16.4787,30.272 15.4998,30.0155 14.6545,29.6962 L15.366,27.4967 C16.1079,27.7813 16.9877,28.0207 18.0056,28.2148 C19.0231,28.4088 19.9117,28.506 20.671,28.506 C22.172,28.506 23.3965,28.1479 24.3455,27.4322 C25.1993,26.7935 25.6264,26.0389 25.6264,25.1677 L25.6264,19.1513 C25.6264,17.8315 25.1561,16.7448 24.2161,15.8907 C23.2758,15.0367 22.0942,14.6101 20.671,14.6101 Z" style="stroke:none;fill-rule:evenodd;fill:#ffffff;fill-opacity:1;"/>
        </g>
        <g id="Shape4">
            <desc shapeID="4" type="0" basicInfo-basicType="0" basicInfo-roundedRectRadius="12" basicInfo-polygonSides="6" basicInfo-starPoints="5" bounding="rect(-7.4784,-7.2068,14.9568,14.4136)" text="" font-familyName="" font-pixelSize="20" font-bold="0" font-underline="0" font-alignment="1" strokeStyle="0" markerStart="0" markerEnd="0" shadowEnabled="0" shadowOffsetX="0" shadowOffsetY="2" shadowBlur="4" shadowOpacity="160" blurEnabled="0" blurRadius="4" transform="matrix(1,0,0,1,37.6074,19.5654)" pers-center="0,0" pers-size="0,0" pers-start="0,0" pers-end="0,0" locked="0" mesh="" flag=""/>
            <path id="shapePath4" d="M34.1076,23.0651 C35.0781,24.0356 36.2446,24.5209 37.6074,24.5209 C38.9702,24.5209 40.1372,24.0356 41.1075,23.0651 C42.0776,22.0948 42.563,20.9283 42.563,19.5655 C42.563,18.2026 42.0776,17.0359 41.1075,16.0655 C40.1372,15.0951 38.9702,14.6101 37.6074,14.6101 C36.2446,14.6101 35.0781,15.0951 34.1076,16.0655 C33.1373,17.0359 32.652,18.2026 32.652,19.5655 C32.652,20.9283 33.1373,22.0948 34.1076,23.0651 M40.4865,12.889 C41.3963,13.2429 42.2008,13.7476 42.8992,14.4028 C44.357,15.7917 45.0858,17.5126 45.0858,19.5655 C45.0858,21.6183 44.357,23.335 42.8992,24.7149 C42.2008,25.3793 41.3963,25.8881 40.4865,26.2416 C39.5763,26.5951 38.6167,26.7722 37.6074,26.7722 C36.5985,26.7722 35.6388,26.5951 34.7286,26.2416 C33.8186,25.8881 33.0143,25.3793 32.3157,24.7149 C30.8579,23.335 30.129,21.6183 30.129,19.5655 C30.129,17.5126 30.8579,15.7917 32.3157,14.4028 C33.0143,13.7476 33.8186,13.2429 34.7286,12.889 C35.6388,12.5355 36.5985,12.3586 37.6074,12.3586 C38.6167,12.3586 39.5763,12.5355 40.4865,12.889 Z" style="stroke:none;fill-rule:evenodd;fill:#ffffff;fill-opacity:1;"/>
        </g>
        <g id="Shape5">
            <desc shapeID="5" type="0" basicInfo-basicType="0" basicInfo-roundedRectRadius="12" basicInfo-polygonSides="6" basicInfo-starPoints="5" bounding="rect(-6.67635,-7.071,13.3527,14.142)" text="" font-familyName="" font-pixelSize="20" font-bold="0" font-underline="0" font-alignment="1" strokeStyle="0" markerStart="0" markerEnd="0" shadowEnabled="0" shadowOffsetX="0" shadowOffsetY="2" shadowBlur="4" shadowOpacity="160" blurEnabled="0" blurRadius="4" transform="matrix(1,0,0,1,52.6293,19.7012)" pers-center="0,0" pers-size="0,0" pers-start="0,0" pers-end="0,0" locked="0" mesh="" flag=""/>
            <path id="shapePath5" d="M45.953,12.6302 L48.5019,12.6302 L51.8662,23.6411 C51.9779,24.0466 52.2324,24.2492 52.6293,24.2492 C53.026,24.2233 53.2847,24.0207 53.4055,23.6411 L56.7696,12.6302 L59.3057,12.6302 L55.6827,24.5209 C55.4759,25.1765 55.0943,25.7157 54.5378,26.1384 C53.9815,26.5606 53.3452,26.7722 52.6293,26.7722 C51.9132,26.7722 51.275,26.5586 50.7145,26.1315 C50.1537,25.7046 49.7783,25.1677 49.5886,24.5209 L45.953,12.6302 Z" style="stroke:none;fill-rule:evenodd;fill:#ffffff;fill-opacity:1;"/>
        </g>
        <g id="Shape6">
            <desc shapeID="6" type="0" basicInfo-basicType="0" basicInfo-roundedRectRadius="12" basicInfo-polygonSides="6" basicInfo-starPoints="5" bounding="rect(-1.26151,-6.9416,2.523,13.8832)" text="" font-familyName="" font-pixelSize="20" font-bold="0" font-underline="0" font-alignment="1" strokeStyle="0" markerStart="0" markerEnd="0" shadowEnabled="0" shadowOffsetX="0" shadowOffsetY="2" shadowBlur="4" shadowOpacity="160" blurEnabled="0" blurRadius="4" transform="matrix(1,0,0,1,72.645,19.5718)" pers-center="0,0" pers-size="0,0" pers-start="0,0" pers-end="0,0" locked="0" mesh="" flag=""/>
            <path id="shapePath6" d="M71.3835,12.6302 L73.9065,12.6302 C73.9065,14.83 73.9065,20.7202 73.9065,26.5134 L71.3835,26.5134 L71.3835,12.6302 Z" style="stroke:none;fill-rule:evenodd;fill:#000000;fill-opacity:1;"/>
        </g>
        <g id="Shape7">
            <desc shapeID="7" type="0" basicInfo-basicType="0" basicInfo-roundedRectRadius="12" basicInfo-polygonSides="6" basicInfo-starPoints="5" bounding="rect(-7.47855,-9.73145,14.9571,19.4629)" text="" font-familyName="" font-pixelSize="20" font-bold="0" font-underline="0" font-alignment="1" strokeStyle="0" markerStart="0" markerEnd="0" shadowEnabled="0" shadowOffsetX="0" shadowOffsetY="2" shadowBlur="4" shadowOpacity="160" blurEnabled="0" blurRadius="4" transform="matrix(1,0,0,1,84.7401,17.1028)" pers-center="0,0" pers-size="0,0" pers-start="0,0" pers-end="0,0" locked="0" mesh="" flag=""/>
            <path id="shapePath7" d="M84.74,14.6722 C83.3769,14.6722 82.2101,15.1573 81.2398,16.1277 C80.2695,17.0981 79.7844,18.2647 79.7844,19.6276 C79.7844,20.9904 80.2695,22.157 81.2398,23.1275 C82.2101,24.0978 83.3769,24.583 84.74,24.583 C85.5766,24.583 86.3614,24.3848 87.0947,23.9877 C87.8279,23.5912 88.4318,23.0391 88.9061,22.3315 L88.9061,25.6699 C87.6293,26.4462 86.2408,26.8343 84.74,26.8343 C83.7306,26.8343 82.771,26.6572 81.861,26.3037 C80.951,25.9502 80.1465,25.4416 79.4481,24.7771 C77.9903,23.3971 77.2615,21.6806 77.2615,19.6276 C77.2615,17.5748 77.9903,15.8539 79.4481,14.465 C80.1465,13.8097 80.951,13.3051 81.861,12.9511 C82.771,12.5976 83.7306,12.4207 84.74,12.4207 C85.7492,12.4207 86.7085,12.5976 87.6187,12.9511 C88.5285,13.3051 89.6954,14.3077 89.6954,14.3077 L89.6954,7.3714 L92.2186,7.3714 L92.2186,26.5757 L89.6954,26.5757 L89.6954,19.6276 C89.6954,18.2647 89.21,17.0981 88.2399,16.1277 C87.2696,15.1573 86.1028,14.6722 84.74,14.6722 Z" style="stroke:none;fill-rule:evenodd;fill:#000000;fill-opacity:1;"/>
        </g>
        <g id="Shape8">
            <desc shapeID="8" type="0" basicInfo-basicType="0" basicInfo-roundedRectRadius="12" basicInfo-polygonSides="6" basicInfo-starPoints="5" bounding="rect(-6.52715,-6.51597,13.0543,13.0319)" text="" font-familyName="" font-pixelSize="20" font-bold="0" font-underline="0" font-alignment="1" strokeStyle="0" markerStart="0" markerEnd="0" shadowEnabled="0" shadowOffsetX="0" shadowOffsetY="2" shadowBlur="4" shadowOpacity="160" blurEnabled="0" blurRadius="4" transform="matrix(1,0,0,1,9.02135,9.13342)" pers-center="0,0" pers-size="0,0" pers-start="0,0" pers-end="0,0" locked="0" mesh="" flag=""/>
            <path id="shapePath8" d="M15.5485,2.61745 L15.5485,4.84878 C9.6528,4.91243 4.78531,9.76793 4.72182,15.6494 L2.49419,15.6494 C2.55874,8.49191 8.37869,2.68136 15.5485,2.61745 Z" style="stroke:none;fill-rule:evenodd;fill:#fffefe;fill-opacity:1;"/>
        </g>
        <g id="Shape9">
            <desc shapeID="9" type="0" basicInfo-basicType="0" basicInfo-roundedRectRadius="12" basicInfo-polygonSides="6" basicInfo-starPoints="5" bounding="rect(-4.14608,-4.139,8.29216,8.278)" text="" font-familyName="" font-pixelSize="20" font-bold="0" font-underline="0" font-alignment="1" strokeStyle="0" markerStart="0" markerEnd="0" shadowEnabled="0" shadowOffsetX="0" shadowOffsetY="2" shadowBlur="4" shadowOpacity="160" blurEnabled="0" blurRadius="4" transform="matrix(1,0,0,1,11.4024,11.5104)" pers-center="0,0" pers-size="0,0" pers-start="0,0" pers-end="0,0" locked="0" mesh="" flag=""/>
            <path id="shapePath9" d="M15.5485,7.3714 L15.5485,9.51744 C11.8036,9.55776 9.44048,11.9135 9.39995,15.6494 L7.25634,15.6494 C7.29723,11.103 10.9942,7.41196 15.5485,7.3714 Z" style="stroke:none;fill-rule:evenodd;fill:#fffefe;fill-opacity:1;"/>
        </g>
    </g>
</svg>
